<svg xmlns="http://www.w3.org/2000/svg" width="512" height="512"><path fill="#A00" d="M0 0h512v512H0V0Z"/><path fill="#FDFBFB" d="M99 114h71c2.486 5.594 4.895 11.122 7.074 16.828l.85 2.21c.924 2.403 1.844 4.808 2.763 7.212l1.99 5.186c5.617 14.66 11.168 29.345 16.707 44.035a16642.51 16642.51 0 0 0 15.991 42.216l1.191 3.133 4.793 12.604a50995.442 50995.442 0 0 1 11.08 29.161l4.816 12.686a5277.144 5277.144 0 0 0 10.827 28.319l1.862 4.83c1.128 2.927 2.263 5.85 3.401 8.773l1.48 3.834 1.283 3.305C257 341 257 341 257 344h2l.825-3.512c1.056-4.214 2.435-8.232 3.968-12.293l.809-2.172c.857-2.301 1.721-4.6 2.586-6.898l1.783-4.776c3.17-8.477 6.393-16.93 9.718-25.348 1.969-5.019 3.75-10.09 5.498-15.188 3.028-8.818 6.363-17.505 9.75-26.188 3.353-8.596 6.693-17.191 9.813-25.875 3.679-10.235 7.454-20.433 11.245-30.627.7-1.882 1.398-3.765 2.097-5.647 3.493-9.413 7.017-18.81 10.678-28.16 2.414-6.168 4.723-12.356 6.855-18.629 7.55-21.862 7.55-21.862 9.375-23.687 2.177-.124 4.359-.178 6.54-.205l2.069-.03c2.267-.032 4.534-.057 6.801-.081l4.704-.063c4.135-.056 8.27-.105 12.404-.153 4.216-.05 8.432-.106 12.648-.161 8.278-.108 16.556-.21 24.834-.307v8l-1.833.212c-2.766.33-5.529.683-8.292 1.038l-2.883.332c-5.59.738-9.623 1.58-13.992 5.418-7.293 10.715-5.291 25.954-5.275 38.367l-.015 6.45c-.013 5.81-.014 11.62-.012 17.429.001 4.86-.003 9.721-.008 14.582-.011 11.47-.012 22.942-.006 34.412.006 11.813-.006 23.626-.027 35.439-.018 10.164-.024 20.328-.02 30.493.001 6.06-.001 12.122-.015 18.183-.013 5.7-.01 11.4.002 17.099.002 2.085 0 4.17-.009 6.254-.612 17.698-.612 17.698 5.51 33.854 7.415 6.287 17.56 6.395 26.875 7.438v8H312v-8c.61-.105 1.22-.21 1.848-.32 2.782-.487 5.56-.99 8.34-1.493l2.908-.501c6.924-1.188 6.924-1.188 12.904-4.686 1.395-2.05 1.395-2.05 2.25-4.375.315-.75.63-1.5.953-2.273 1.867-5.511 1.937-10.7 1.917-16.457l.003-2.785c.001-3.08-.004-6.16-.01-9.24l.001-6.623c0-5.995-.006-11.99-.013-17.986-.006-6.265-.006-12.53-.008-18.794-.002-10.516-.009-21.032-.018-31.547-.009-10.83-.016-21.661-.02-32.492v-2.023l-.005-10.05c-.01-27.785-.028-55.57-.05-83.355a1260400.557 1260400.557 0 0 0-10.279 27.589 91971.68 91971.68 0 0 0-18.83 50.582l-.961 2.582c-5.211 14.007-10.43 28.012-15.648 42.017A88753.794 88753.794 0 0 0 281 310.5a115303.796 115303.796 0 0 1-19.344 51.96A13527.769 13527.769 0 0 1 248 399h-7a22617.164 22617.164 0 0 1-34.609-88.827c-3.96-10.225-7.926-20.45-11.891-30.673l-4.738-12.219-1.186-3.057c-2.406-6.205-4.811-12.41-7.215-18.616L175.313 230l-1.192-3.073a13468.309 13468.309 0 0 0-12.59-32.38l-1.088-2.786c-1.67-4.278-3.343-8.555-5.018-12.831a2816.67 2816.67 0 0 1-9.65-25.011l-1.108-2.908L142 144c-.07 28.477-.123 56.954-.155 85.432a27749.42 27749.42 0 0 1-.071 39.669c-.03 11.527-.05 23.055-.056 34.583a6216.75 6216.75 0 0 1-.035 18.304c-.02 5.749-.027 11.498-.022 17.246-.001 2.105-.007 4.209-.019 6.313-.306 17.799-.306 17.799 5.358 34.453 6.252 6.234 15.704 6.74 24 8 2 .331 4 .664 6 1v8H99v-8l2.965-.516c12.548-2.174 12.548-2.174 23.41-8.484 6.066-11.198 5.046-24.143 4.997-36.475.003-2.161.006-4.322.011-6.484.01-5.84 0-11.681-.013-17.522-.011-6.127-.007-12.255-.005-18.382 0-10.287-.01-20.573-.029-30.86-.021-11.875-.024-23.75-.018-35.626.005-11.447 0-22.895-.011-34.342-.005-4.862-.006-9.723-.004-14.584a5569.75 5569.75 0 0 0-.022-17.186c-.004-2.096-.005-4.193-.002-6.29.935-17.113.935-17.113-4.404-32.749-7.502-6.523-17.39-6.522-26.875-7.5v-8Z"/><path d="M511 471h1v41h-41c3.222-1.611 6.335-2.904 9.688-4.188C494.67 501.995 503.13 491.709 509 478a62.354 62.354 0 0 0 2-7ZM0 471c1.611 3.222 2.904 6.335 4.188 9.688C10.005 494.67 20.291 503.13 34 509c2.34.822 4.578 1.45 7 2v1H0v-41ZM471 0h41v41c-1.611-3.222-2.904-6.335-4.188-9.688C501.995 17.33 491.709 8.87 478 3a62.354 62.354 0 0 0-7-2V0ZM0 0h41c-3.222 1.611-6.335 2.904-9.688 4.188C17.33 10.005 8.87 20.291 3 34a62.354 62.354 0 0 0-2 7H0V0Z"/></svg>