<?xml version="1.0" encoding="UTF-8"?>
<svg version="1.1" xmlns="http://www.w3.org/2000/svg" width="512" height="512">
<path d="M0 0 C168.96 0 337.92 0 512 0 C512 168.96 512 337.92 512 512 C343.04 512 174.08 512 0 512 C0 343.04 0 174.08 0 0 Z " fill="#AA0000" transform="translate(0,0)"/>
<path d="M0 0 C23.43 0 46.86 0 71 0 C73.48629014 5.5941528 75.89519318 11.12241089 78.07421875 16.828125 C78.35483658 17.55749771 78.63545441 18.28687042 78.92457581 19.03834534 C79.84808761 21.44126514 80.76792862 23.84556974 81.6875 26.25 C82.35052295 27.97878392 83.01361045 29.70754309 83.67675781 31.4362793 C89.29433488 46.09615579 94.84450297 60.7814395 100.3840332 75.47094727 C105.69387133 89.55094809 111.02698913 103.62195474 116.375 117.6875 C116.76806335 118.72129791 117.16112671 119.75509583 117.56610107 120.82022095 C119.16361138 125.02164283 120.76122 129.22302729 122.35903931 133.42433167 C125.23097418 140.97612736 128.10040488 148.52887143 130.96875 156.08203125 C131.79206948 158.24967603 132.61539302 160.41731927 133.4387207 162.58496094 C135.04468489 166.81322704 136.64987899 171.04178444 138.25463867 175.27050781 C141.84175334 184.71887776 145.4406887 194.16222565 149.08203125 203.58984375 C149.70268051 205.19985291 150.32328744 206.80987839 150.94384766 208.41992188 C152.07206259 211.34660156 153.20665414 214.27069141 154.34521484 217.19335938 C154.83845391 218.47126242 155.33147049 219.74925137 155.82421875 221.02734375 C156.24791748 222.11781006 156.67161621 223.20827637 157.1081543 224.33178711 C158 227 158 227 158 230 C158.66 230 159.32 230 160 230 C160.27239502 228.84097168 160.54479004 227.68194336 160.82543945 226.48779297 C161.88102021 222.27391321 163.26022472 218.25609885 164.79296875 214.1953125 C165.19324532 213.11980385 165.19324532 213.11980385 165.60160828 212.02256775 C166.45931376 209.72176147 167.3232607 207.42335902 168.1875 205.125 C168.78233001 203.5332212 169.37689275 201.9413425 169.97119141 200.34936523 C173.14121555 191.87226425 176.36359999 183.41854025 179.68945312 175.0012207 C181.65790297 169.98228116 183.43905468 164.9117464 185.1875 159.8125 C188.2145885 150.99530153 191.54961967 142.30795281 194.9375 133.625 C198.28965867 125.02881204 201.62954743 116.43383359 204.75 107.75 C208.42863273 97.51494765 212.20400206 87.31672086 215.99450684 77.12268066 C216.6942021 75.24064514 217.39335951 73.35840955 218.09191895 71.47595215 C221.58539333 62.06310844 225.10909688 52.66575469 228.76953125 43.31640625 C231.18444759 37.14796842 233.49259581 30.96026626 235.625 24.6875 C243.17496645 2.82503355 243.17496645 2.82503355 245 1 C247.17731389 0.87598086 249.35863454 0.8219849 251.53930664 0.79467773 C252.22220261 0.78477814 252.90509857 0.77487854 253.60868835 0.76467896 C255.87580853 0.73298065 258.14294969 0.70827387 260.41015625 0.68359375 C261.97815001 0.6630314 263.54613813 0.64203512 265.11412048 0.62062073 C269.24870248 0.56532576 273.38333511 0.51594938 277.51800537 0.46777344 C281.73405483 0.41761247 285.95003043 0.36189826 290.16601562 0.30664062 C298.44394803 0.1989683 306.72194208 0.09754365 315 0 C315 2.64 315 5.28 315 8 C314.39526855 8.06993164 313.79053711 8.13986328 313.16748047 8.21191406 C310.4010566 8.54136374 307.63831417 8.89544778 304.875 9.25 C303.92367188 9.35957031 302.97234375 9.46914062 301.9921875 9.58203125 C296.40146718 10.31969574 292.3694295 11.16143577 288 15 C280.70695331 25.71501634 282.70868329 40.95401395 282.7253418 53.3671875 C282.72098851 55.51694922 282.71580332 57.66670939 282.70985413 59.81646729 C282.69652126 65.62631211 282.69587893 71.43609166 282.69841743 77.24594879 C282.69949073 82.10672715 282.69459476 86.96749249 282.689812 91.82826805 C282.67873722 103.29893349 282.67826841 114.76956618 282.68432617 126.24023438 C282.69036893 138.05319471 282.67804254 149.86603602 282.6567561 161.67897606 C282.63911754 171.84323572 282.63314219 182.00745756 282.63639385 192.17173195 C282.63820277 198.23282741 282.63560927 204.2938379 282.62167931 210.35491943 C282.60906839 216.05464587 282.61107599 221.75418711 282.62409019 227.45391083 C282.62644816 229.53875543 282.62374942 231.6236132 282.61546707 233.70844269 C282.0034167 251.40611404 282.0034167 251.40611404 288.125 267.5625 C295.54037472 273.84944814 305.68534378 273.95685668 315 275 C315 277.64 315 280.28 315 283 C281.34 283 247.68 283 213 283 C213 280.36 213 277.72 213 275 C213.60996826 274.89453857 214.21993652 274.78907715 214.84838867 274.68041992 C217.63005894 274.1933303 220.40867878 273.69057823 223.1875 273.1875 C224.62706055 272.9390332 224.62706055 272.9390332 226.09570312 272.68554688 C233.02035739 271.4982475 233.02035739 271.4982475 239 268 C240.39505333 265.9494337 240.39505333 265.9494337 241.25 263.625 C241.56453125 262.87476563 241.8790625 262.12453125 242.203125 261.3515625 C244.07048009 255.84103426 244.13982284 250.65215913 244.12025452 244.89482117 C244.12110894 243.97583331 244.12196337 243.05684546 244.12284368 242.11000949 C244.1244911 239.02994419 244.11898915 235.94993333 244.11352539 232.86987305 C244.11324333 230.66226706 244.11340161 228.45466098 244.1139679 226.24705505 C244.11425515 220.25166637 244.10837002 214.25629765 244.10139394 208.26091361 C244.09514845 201.9961938 244.09455565 195.73147354 244.09336853 189.4667511 C244.09061221 178.9510567 244.0843633 168.43536848 244.07543945 157.91967773 C244.0662581 147.08927446 244.0591808 136.25887318 244.05493164 125.4284668 C244.05466892 124.7606934 244.05440619 124.09292001 244.05413551 123.40491106 C244.05283046 120.05483229 244.05156675 116.7047535 244.05032361 113.3546747 C244.03986721 85.56977803 244.02227458 57.78488953 244 30 C241.44052795 36.8694828 238.88112953 43.73899304 236.32177734 50.60852051 C235.45493148 52.93518667 234.58807005 55.26184703 233.72119141 57.58850098 C228.14390089 72.5576773 222.56948984 87.52791958 217 102.5 C216.29675887 104.39034238 215.59351179 106.28068254 214.89025879 108.17102051 C214.57328285 109.02305305 214.25630692 109.8750856 213.92972565 110.75293732 C208.71857113 124.76027221 203.50002845 138.7648535 198.28173828 152.76953125 C192.85084873 167.34500019 187.42322559 181.92167779 182 196.5 C176.38107638 211.60387407 170.7590451 226.70658859 165.13378906 241.80810547 C164.30788199 244.02536801 163.48203365 246.24265243 162.65625 248.45996094 C158.11804153 260.64519996 153.57332837 272.82789349 149 285 C146.69 285 144.38 285 142 285 C130.39984518 255.41572662 118.86646522 225.80623313 107.39111328 196.17333984 C103.43086154 185.94755489 99.46502626 175.72393432 95.5 165.5 C93.92051727 161.42710491 92.34109273 157.35418726 90.76171875 153.28125 C90.37045807 152.27226151 89.97919739 151.26327301 89.57608032 150.22370911 C87.17007158 144.018679 84.76502184 137.81327806 82.360672 131.60760498 C80.34491847 126.40495224 78.32878844 121.20244546 76.3125 116 C75.91944672 114.98578979 75.52639343 113.97157959 75.12142944 112.92663574 C70.93620437 102.12888244 66.74431502 91.33379996 62.53125 80.546875 C62.17218063 79.62749146 61.81311127 78.70810791 61.44316101 77.76086426 C59.77207117 73.48317184 58.09964403 69.20600886 56.42504883 64.9296875 C53.16906608 56.60739673 49.95081207 48.2718747 46.77416992 39.91894531 C46.40890953 38.95928864 46.04364914 37.99963196 45.66732025 37.01089478 C44.77792368 34.67403995 43.88882175 32.3370735 43 30 C42.92986017 58.4771707 42.87698741 86.95432841 42.84456348 115.43156815 C42.82910708 128.65460348 42.80804094 141.87758509 42.77368164 155.10058594 C42.74374182 166.62828697 42.72441608 178.15594909 42.71773452 189.68368793 C42.71383005 195.78521974 42.7046794 201.88664022 42.68280983 207.98813629 C42.66237237 213.73692888 42.65618089 219.48556479 42.66067696 225.23439026 C42.659855 227.3385834 42.65393286 229.44278206 42.64238358 231.54694366 C42.3359953 249.34582054 42.3359953 249.34582054 48 266 C54.25199423 272.23433323 63.70365252 272.73936404 72 274 C74.00036166 274.33115607 76.00050735 274.66363675 78 275 C78 277.64 78 280.28 78 283 C52.26 283 26.52 283 0 283 C0 280.36 0 277.72 0 275 C1.46759766 274.74476563 1.46759766 274.74476563 2.96484375 274.484375 C15.51261053 272.30992228 15.51261053 272.30992228 26.375 266 C32.44068415 254.80181389 31.42103873 241.85712812 31.37231445 229.52514648 C31.3747458 227.36391017 31.37846843 225.20267498 31.38337708 223.04144287 C31.39274215 217.20063139 31.38339782 211.35998878 31.37004495 205.51919055 C31.35868453 199.39178634 31.36284146 193.26438988 31.36479187 187.13697815 C31.36567333 176.85048685 31.35462488 166.56406164 31.33618164 156.27758789 C31.31501072 144.40214278 31.31150627 132.52679439 31.3177436 120.65133423 C31.32344728 109.20374686 31.31778011 97.75619339 31.30657005 86.30861092 C31.30193795 81.44724968 31.30104418 76.58590927 31.3031559 71.72454643 C31.30504591 65.99611857 31.29688015 60.2677885 31.2810955 54.53938293 C31.27686995 52.44283516 31.2759904 50.34627742 31.27878571 48.24972725 C32.21398667 31.13612767 32.21398667 31.13612767 26.875 15.5 C19.37321469 8.97670842 9.48422567 8.97834852 0 8 C0 5.36 0 2.72 0 0 Z " fill="#FDFBFB" transform="translate(99,114)"/>
<path d="M0 0 C0.33 0 0.66 0 1 0 C1 13.53 1 27.06 1 41 C-12.53 41 -26.06 41 -40 41 C-36.77794772 39.38897386 -33.66489916 38.09649079 -30.3125 36.8125 C-16.32964928 30.99481758 -7.86955879 20.70813891 -2 7 C-1.17794005 4.65968578 -0.55034658 2.42152494 0 0 Z " fill="#000000" transform="translate(511,471)"/>
<path d="M0 0 C1.61102614 3.22205228 2.90350921 6.33510084 4.1875 9.6875 C10.00518242 23.67035072 20.29186109 32.13044121 34 38 C36.34031422 38.82205995 38.57847506 39.44965342 41 40 C41 40.33 41 40.66 41 41 C27.47 41 13.94 41 0 41 C0 27.47 0 13.94 0 0 Z " fill="#000000" transform="translate(0,471)"/>
<path d="M0 0 C13.53 0 27.06 0 41 0 C41 13.53 41 27.06 41 41 C39.38897386 37.77794772 38.09649079 34.66489916 36.8125 31.3125 C30.99481758 17.32964928 20.70813891 8.86955879 7 3 C4.65968578 2.17794005 2.42152494 1.55034658 0 1 C0 0.67 0 0.34 0 0 Z " fill="#000000" transform="translate(471,0)"/>
<path d="M0 0 C13.53 0 27.06 0 41 0 C37.77794772 1.61102614 34.66489916 2.90350921 31.3125 4.1875 C17.32964928 10.00518242 8.86955879 20.29186109 3 34 C2.17794005 36.34031422 1.55034658 38.57847506 1 41 C0.67 41 0.34 41 0 41 C0 27.47 0 13.94 0 0 Z " fill="#000000" transform="translate(0,0)"/>
</svg>
